<svg width="16" height="16" viewBox="0 0 16 16" fill="none" xmlns="http://www.w3.org/2000/svg">
<path d="M10.2667 6.58663L7.20666 3.52663C7.08175 3.40246 6.91278 3.33276 6.73666 3.33276C6.56053 3.33276 6.39157 3.40246 6.26666 3.52663C6.20417 3.5886 6.15458 3.66233 6.12073 3.74357C6.08688 3.82481 6.06946 3.91195 6.06946 3.99996C6.06946 4.08797 6.08688 4.1751 6.12073 4.25634C6.15458 4.33758 6.20417 4.41132 6.26666 4.47329L9.33332 7.52663C9.39581 7.5886 9.44541 7.66233 9.47925 7.74357C9.5131 7.82481 9.53052 7.91195 9.53052 7.99996C9.53052 8.08797 9.5131 8.1751 9.47925 8.25634C9.44541 8.33758 9.39581 8.41132 9.33332 8.47329L6.26666 11.5266C6.14112 11.6513 6.07024 11.8207 6.06962 11.9976C6.06899 12.1745 6.13867 12.3444 6.26332 12.47C6.38798 12.5955 6.55739 12.6664 6.7343 12.667C6.91121 12.6676 7.08112 12.5979 7.20666 12.4733L10.2667 9.41329C10.6412 9.03829 10.8516 8.52996 10.8516 7.99996C10.8516 7.46996 10.6412 6.96163 10.2667 6.58663Z" fill="#2A7FF3"/>
</svg>
