<svg width="18" height="18" viewBox="0 0 18 18" fill="none" xmlns="http://www.w3.org/2000/svg">
<path d="M11.55 7.41011L8.10747 3.96761C7.96695 3.82792 7.77686 3.74951 7.57872 3.74951C7.38058 3.74951 7.1905 3.82792 7.04997 3.96761C6.97968 4.03733 6.92388 4.12028 6.88581 4.21167C6.84773 4.30307 6.82812 4.4011 6.82812 4.50011C6.82812 4.59912 6.84773 4.69714 6.88581 4.78854C6.92388 4.87993 6.97968 4.96288 7.04997 5.03261L10.5 8.46761C10.5703 8.53733 10.6261 8.62028 10.6641 8.71167C10.7022 8.80307 10.7218 8.9011 10.7218 9.00011C10.7218 9.09912 10.7022 9.19714 10.6641 9.28854C10.6261 9.37993 10.5703 9.46288 10.5 9.53261L7.04997 12.9676C6.90875 13.1078 6.82901 13.2984 6.82831 13.4975C6.8276 13.6965 6.90599 13.8876 7.04622 14.0289C7.18646 14.1701 7.37705 14.2498 7.57607 14.2505C7.7751 14.2512 7.96625 14.1728 8.10747 14.0326L11.55 10.5901C11.9713 10.1682 12.208 9.59636 12.208 9.00011C12.208 8.40385 11.9713 7.83198 11.55 7.41011Z" fill="#00295D"/>
<path d="M11.55 7.41011L8.10747 3.96761C7.96695 3.82792 7.77686 3.74951 7.57872 3.74951C7.38058 3.74951 7.1905 3.82792 7.04997 3.96761C6.97968 4.03733 6.92388 4.12028 6.88581 4.21167C6.84773 4.30307 6.82812 4.4011 6.82812 4.50011C6.82812 4.59912 6.84773 4.69714 6.88581 4.78854C6.92388 4.87993 6.97968 4.96288 7.04997 5.03261L10.5 8.46761C10.5703 8.53733 10.6261 8.62028 10.6641 8.71167C10.7022 8.80307 10.7218 8.9011 10.7218 9.00011C10.7218 9.09912 10.7022 9.19714 10.6641 9.28854C10.6261 9.37993 10.5703 9.46288 10.5 9.53261L7.04997 12.9676C6.90875 13.1078 6.82901 13.2984 6.82831 13.4975C6.8276 13.6965 6.90599 13.8876 7.04622 14.0289C7.18646 14.1701 7.37705 14.2498 7.57607 14.2505C7.7751 14.2512 7.96625 14.1728 8.10747 14.0326L11.55 10.5901C11.9713 10.1682 12.208 9.59636 12.208 9.00011C12.208 8.40385 11.9713 7.83198 11.55 7.41011Z" fill="#00295D"/>
</svg>
