<svg width="16" height="16" viewBox="0 0 16 16" fill="none" xmlns="http://www.w3.org/2000/svg">
<g clip-path="url(#clip0_230_12651)">
<path d="M8.00004 11.4468C7.56201 11.4475 7.12812 11.362 6.72317 11.195C6.31823 11.028 5.95017 10.7828 5.64004 10.4734L0.193376 5.02676C0.0678397 4.90123 -0.00268555 4.73096 -0.00268555 4.55343C-0.00268555 4.37589 0.0678397 4.20563 0.193376 4.08009C0.318911 3.95456 0.489174 3.88403 0.666709 3.88403C0.844243 3.88403 1.01451 3.95456 1.14004 4.08009L6.58671 9.52676C6.96171 9.9013 7.47004 10.1117 8.00004 10.1117C8.53004 10.1117 9.03837 9.9013 9.41338 9.52676L14.86 4.08009C14.9856 3.95456 15.1558 3.88403 15.3334 3.88403C15.5109 3.88403 15.6812 3.95456 15.8067 4.08009C15.9322 4.20563 16.0028 4.37589 16.0028 4.55343C16.0028 4.73096 15.9322 4.90123 15.8067 5.02676L10.36 10.4734C10.0499 10.7828 9.68186 11.028 9.27691 11.195C8.87197 11.362 8.43808 11.4475 8.00004 11.4468V11.4468Z" fill="black"/>
</g>
<defs>
<clipPath id="clip0_230_12651">
<rect width="16" height="16" fill="white"/>
</clipPath>
</defs>
</svg>
