<svg width="20" height="20" viewBox="0 0 20 20" fill="none" xmlns="http://www.w3.org/2000/svg">
<g clip-path="url(#clip0_23_1130)">
<path d="M5.83333 0H3.33333C2.44928 0 1.60143 0.35119 0.976311 0.976311C0.35119 1.60143 0 2.44928 0 3.33333L0 5.83333C0 6.71739 0.35119 7.56524 0.976311 8.19036C1.60143 8.81548 2.44928 9.16667 3.33333 9.16667H5.83333C6.71739 9.16667 7.56524 8.81548 8.19036 8.19036C8.81548 7.56524 9.16667 6.71739 9.16667 5.83333V3.33333C9.16667 2.44928 8.81548 1.60143 8.19036 0.976311C7.56524 0.35119 6.71739 0 5.83333 0V0ZM7.5 5.83333C7.5 6.27536 7.32441 6.69928 7.01184 7.01184C6.69928 7.32441 6.27536 7.5 5.83333 7.5H3.33333C2.89131 7.5 2.46738 7.32441 2.15482 7.01184C1.84226 6.69928 1.66667 6.27536 1.66667 5.83333V3.33333C1.66667 2.89131 1.84226 2.46738 2.15482 2.15482C2.46738 1.84226 2.89131 1.66667 3.33333 1.66667H5.83333C6.27536 1.66667 6.69928 1.84226 7.01184 2.15482C7.32441 2.46738 7.5 2.89131 7.5 3.33333V5.83333Z" fill="white"/>
<path d="M5.83333 10.8333H3.33333C2.44928 10.8333 1.60143 11.1844 0.976311 11.8096C0.35119 12.4347 0 13.2825 0 14.1666L0 16.6666C0 17.5506 0.35119 18.3985 0.976311 19.0236C1.60143 19.6487 2.44928 19.9999 3.33333 19.9999H5.83333C6.71739 19.9999 7.56524 19.6487 8.19036 19.0236C8.81548 18.3985 9.16667 17.5506 9.16667 16.6666V14.1666C9.16667 13.2825 8.81548 12.4347 8.19036 11.8096C7.56524 11.1844 6.71739 10.8333 5.83333 10.8333ZM7.5 16.6666C7.5 17.1086 7.32441 17.5325 7.01184 17.8451C6.69928 18.1577 6.27536 18.3333 5.83333 18.3333H3.33333C2.89131 18.3333 2.46738 18.1577 2.15482 17.8451C1.84226 17.5325 1.66667 17.1086 1.66667 16.6666V14.1666C1.66667 13.7246 1.84226 13.3006 2.15482 12.9881C2.46738 12.6755 2.89131 12.4999 3.33333 12.4999H5.83333C6.27536 12.4999 6.69928 12.6755 7.01184 12.9881C7.32441 13.3006 7.5 13.7246 7.5 14.1666V16.6666Z" fill="white"/>
<path d="M16.6667 10.8333H14.1667C13.2826 10.8333 12.4348 11.1844 11.8096 11.8096C11.1845 12.4347 10.8333 13.2825 10.8333 14.1666V16.6666C10.8333 17.5506 11.1845 18.3985 11.8096 19.0236C12.4348 19.6487 13.2826 19.9999 14.1667 19.9999H16.6667C17.5507 19.9999 18.3986 19.6487 19.0237 19.0236C19.6488 18.3985 20 17.5506 20 16.6666V14.1666C20 13.2825 19.6488 12.4347 19.0237 11.8096C18.3986 11.1844 17.5507 10.8333 16.6667 10.8333ZM18.3333 16.6666C18.3333 17.1086 18.1577 17.5325 17.8452 17.8451C17.5326 18.1577 17.1087 18.3333 16.6667 18.3333H14.1667C13.7246 18.3333 13.3007 18.1577 12.9882 17.8451C12.6756 17.5325 12.5 17.1086 12.5 16.6666V14.1666C12.5 13.7246 12.6756 13.3006 12.9882 12.9881C13.3007 12.6755 13.7246 12.4999 14.1667 12.4999H16.6667C17.1087 12.4999 17.5326 12.6755 17.8452 12.9881C18.1577 13.3006 18.3333 13.7246 18.3333 14.1666V16.6666Z" fill="white"/>
<path d="M11.6667 5.83325H14.1667V8.33325C14.1667 8.55427 14.2545 8.76623 14.4107 8.92251C14.567 9.07879 14.779 9.16659 15 9.16659C15.221 9.16659 15.433 9.07879 15.5893 8.92251C15.7455 8.76623 15.8333 8.55427 15.8333 8.33325V5.83325H18.3333C18.5543 5.83325 18.7663 5.74545 18.9226 5.58917C19.0789 5.43289 19.1667 5.22093 19.1667 4.99992C19.1667 4.77891 19.0789 4.56694 18.9226 4.41066C18.7663 4.25438 18.5543 4.16659 18.3333 4.16659H15.8333V1.66659C15.8333 1.44557 15.7455 1.23361 15.5893 1.07733C15.433 0.921049 15.221 0.833252 15 0.833252C14.779 0.833252 14.567 0.921049 14.4107 1.07733C14.2545 1.23361 14.1667 1.44557 14.1667 1.66659V4.16659H11.6667C11.4456 4.16659 11.2337 4.25438 11.0774 4.41066C10.9211 4.56694 10.8333 4.77891 10.8333 4.99992C10.8333 5.22093 10.9211 5.43289 11.0774 5.58917C11.2337 5.74545 11.4456 5.83325 11.6667 5.83325Z" fill="white"/>
</g>
<defs>
<clipPath id="clip0_23_1130">
<rect width="20" height="20" fill="white"/>
</clipPath>
</defs>
</svg>
