<svg width="36" height="35" viewBox="0 0 36 35" fill="none" xmlns="http://www.w3.org/2000/svg">
<path d="M23.8614 19.8899L23.8542 13.7034C23.8526 13.1652 23.6381 12.6496 23.2576 12.269C22.877 11.8885 22.3614 11.674 21.8232 11.6724L15.6367 11.6652C15.3676 11.666 15.1098 11.7733 14.9195 11.9635C14.7293 12.1538 14.622 12.4116 14.6212 12.6807C14.6207 12.8152 14.6467 12.9484 14.6979 13.0727C14.7491 13.197 14.8244 13.31 14.9195 13.4051C15.0146 13.5002 15.1276 13.5755 15.2519 13.6267C15.3762 13.6779 15.5094 13.7039 15.6439 13.7034L20.3828 13.7034L12.4606 21.6256C12.2696 21.8166 12.1623 22.0757 12.1623 22.3458C12.1623 22.6159 12.2696 22.875 12.4606 23.066C12.6516 23.257 12.9107 23.3643 13.1808 23.3643C13.4509 23.3643 13.71 23.257 13.901 23.066L21.8232 15.1438L21.8232 19.8827C21.8223 20.153 21.9287 20.4126 22.1192 20.6044C22.3096 20.7962 22.5684 20.9044 22.8387 20.9054C23.109 20.9064 23.3686 20.7999 23.5604 20.6095C23.7522 20.419 23.8604 20.1602 23.8614 19.8899Z" fill="white"/>
</svg>
