<svg width="32" height="32" viewBox="0 0 32 32" fill="none" xmlns="http://www.w3.org/2000/svg">
<rect width="32" height="32" rx="10" fill="white" fill-opacity="0.2"/>
<path d="M17.5704 20.3561L20.7482 17.1709C21.0241 16.8933 21.179 16.5178 21.179 16.1264C21.179 15.735 21.0241 15.3596 20.7482 15.082L17.5704 11.8968C17.4316 11.7588 17.2438 11.6814 17.0482 11.6814C16.8525 11.6814 16.6647 11.7588 16.5259 11.8968C16.4565 11.9657 16.4014 12.0476 16.3638 12.1379C16.3262 12.2281 16.3068 12.3249 16.3068 12.4227C16.3068 12.5205 16.3262 12.6173 16.3638 12.7076C16.4014 12.7979 16.4565 12.8798 16.5259 12.9487L18.963 15.3857H10.8148C10.6184 15.3857 10.4299 15.4637 10.291 15.6026C10.1521 15.7416 10.0741 15.93 10.0741 16.1264C10.0741 16.3229 10.1521 16.5113 10.291 16.6502C10.4299 16.7891 10.6184 16.8672 10.8148 16.8672H18.963L16.5259 19.3042C16.3864 19.4427 16.3077 19.6309 16.307 19.8275C16.3063 20.0241 16.3837 20.2129 16.5222 20.3524C16.6607 20.4918 16.849 20.5706 17.0455 20.5713C17.2421 20.572 17.4309 20.4946 17.5704 20.3561Z" fill="white"/>
</svg>
