<svg width="40" height="40" viewBox="0 0 40 40" fill="none" xmlns="http://www.w3.org/2000/svg">
<circle cx="20" cy="20" r="20" fill="#0FB2F3" fill-opacity="0.18"/>
<g clip-path="url(#clip0_230_20592)">
<path d="M28.7958 21.3851L27.2125 15.6884C26.7484 14.0195 25.7398 12.5536 24.3469 11.5238C22.9541 10.4939 21.257 9.95922 19.5254 10.0046C17.7938 10.05 16.127 10.6729 14.79 11.7744C13.4531 12.8758 12.5227 14.3925 12.1467 16.0834L10.9208 21.5959C10.7854 22.205 10.7885 22.8368 10.93 23.4445C11.0714 24.0522 11.3475 24.6205 11.738 25.1072C12.1284 25.5939 12.6232 25.9868 13.1857 26.2567C13.7483 26.5266 14.3643 26.6668 14.9883 26.6667H15.9167C16.1079 27.6086 16.6189 28.4555 17.3631 29.0637C18.1073 29.672 19.0389 30.0042 20 30.0042C20.9611 30.0042 21.8927 29.672 22.6369 29.0637C23.381 28.4555 23.8921 27.6086 24.0833 26.6667H24.7817C25.424 26.6668 26.0576 26.5183 26.6331 26.2329C27.2086 25.9476 27.7103 25.533 28.099 25.0216C28.4877 24.5103 28.753 23.9159 28.874 23.2851C28.995 22.6543 28.9685 22.004 28.7967 21.3851H28.7958ZM20 28.3334C19.4848 28.3313 18.9828 28.17 18.5627 27.8717C18.1427 27.5733 17.8251 27.1525 17.6533 26.6667H22.3467C22.1749 27.1525 21.8573 27.5733 21.4372 27.8717C21.0172 28.17 20.5152 28.3313 20 28.3334ZM26.7717 24.0126C26.5394 24.3206 26.2386 24.5703 25.893 24.7417C25.5474 24.9131 25.1666 25.0016 24.7808 25.0001H14.9883C14.614 25 14.2444 24.9159 13.9069 24.7539C13.5695 24.5919 13.2727 24.3562 13.0385 24.0641C12.8042 23.7721 12.6386 23.4312 12.5538 23.0666C12.469 22.702 12.4671 22.323 12.5483 21.9576L13.7733 16.4442C14.0686 15.1161 14.7994 13.9247 15.8495 13.0596C16.8997 12.1945 18.2088 11.7052 19.569 11.6696C20.9291 11.6339 22.2621 12.054 23.3561 12.863C24.4501 13.6719 25.2422 14.8234 25.6067 16.1342L27.19 21.8309C27.2946 22.202 27.3113 22.5925 27.2387 22.9712C27.166 23.3499 27.0061 23.7064 26.7717 24.0126Z" fill="black"/>
</g>
<circle cx="24.5" cy="10.5" r="4.5" fill="#F44336"/>
<defs>
<clipPath id="clip0_230_20592">
<rect width="20" height="20" fill="white" transform="translate(10 10)"/>
</clipPath>
</defs>
</svg>
