<svg width="60" height="60" viewBox="0 0 60 60" fill="none" xmlns="http://www.w3.org/2000/svg">
<rect width="60" height="60" rx="30" fill="white"/>
<g clip-path="url(#clip0_625_7742)">
<path d="M40.6453 30.8082L38.8641 24.3995C38.342 22.522 37.2073 20.8728 35.6403 19.7143C34.0734 18.5557 32.1641 17.9541 30.2161 18.0052C28.268 18.0563 26.3929 18.7571 24.8888 19.9962C23.3847 21.2352 22.338 22.9415 21.915 24.8438L20.536 31.0454C20.3836 31.7306 20.3871 32.4414 20.5463 33.1251C20.7054 33.8088 21.016 34.448 21.4552 34.9956C21.8945 35.5432 22.4511 35.9851 23.084 36.2888C23.7169 36.5925 24.4099 36.7501 25.1119 36.7501H26.1563C26.3714 37.8097 26.9463 38.7624 27.7835 39.4467C28.6207 40.131 29.6687 40.5048 30.75 40.5048C31.8313 40.5048 32.8793 40.131 33.7165 39.4467C34.5537 38.7624 35.1286 37.8097 35.3438 36.7501H36.1294C36.852 36.7501 37.5649 36.5831 38.2123 36.262C38.8597 35.941 39.4241 35.4746 39.8614 34.8993C40.2987 34.324 40.5971 33.6554 40.7333 32.9457C40.8694 32.236 40.8396 31.5045 40.6463 30.8082H40.6453ZM30.75 38.6251C30.1704 38.6227 29.6057 38.4412 29.1331 38.1056C28.6605 37.77 28.3032 37.2966 28.11 36.7501H33.39C33.1968 37.2966 32.8395 37.77 32.3669 38.1056C31.8944 38.4412 31.3296 38.6227 30.75 38.6251ZM38.3681 33.7641C38.1069 34.1107 37.7684 34.3916 37.3796 34.5844C36.9909 34.7773 36.5624 34.8768 36.1284 34.8751H25.1119C24.6907 34.875 24.275 34.7804 23.8953 34.5981C23.5157 34.4159 23.1818 34.1507 22.9183 33.8222C22.6548 33.4936 22.4685 33.1101 22.373 32.6999C22.2776 32.2897 22.2755 31.8634 22.3669 31.4523L23.745 25.2498C24.0772 23.7556 24.8994 22.4153 26.0808 21.4421C27.2621 20.4688 28.735 19.9184 30.2651 19.8783C31.7953 19.8382 33.2949 20.3107 34.5256 21.2208C35.7563 22.1309 36.6475 23.4263 37.0575 24.901L38.8388 31.3098C38.9565 31.7273 38.9752 32.1665 38.8935 32.5926C38.8118 33.0186 38.6319 33.4198 38.3681 33.7641Z" fill="black"/>
</g>
<defs>
<clipPath id="clip0_625_7742">
<rect width="22.5" height="22.5" fill="white" transform="translate(19.5 18)"/>
</clipPath>
</defs>
</svg>
