<svg width="16" height="16" viewBox="0 0 16 16" fill="none" xmlns="http://www.w3.org/2000/svg">
<path d="M7.24652 11.14L2.45052 5.658C1.88452 5.013 2.34452 4 3.20352 4H12.7955C12.9878 3.99984 13.176 4.05509 13.3376 4.15914C13.4993 4.26319 13.6275 4.41164 13.707 4.58669C13.7864 4.76175 13.8137 4.956 13.7856 5.14618C13.7575 5.33636 13.6752 5.51441 13.5485 5.659L8.75252 11.139C8.65866 11.2464 8.54291 11.3325 8.41303 11.3915C8.28316 11.4505 8.14216 11.481 7.99952 11.481C7.85688 11.481 7.71589 11.4505 7.58601 11.3915C7.45614 11.3325 7.34038 11.2464 7.24652 11.139V11.14Z" fill="black"/>
</svg>
