<svg width="20" height="20" viewBox="0 0 20 20" fill="none" xmlns="http://www.w3.org/2000/svg">
<g clip-path="url(#clip0_31_1147)">
<path d="M15.8333 1.66667H15V0.833333C15 0.373333 14.6275 0 14.1667 0C13.7058 0 13.3333 0.373333 13.3333 0.833333V1.66667H6.66667V0.833333C6.66667 0.373333 6.29417 0 5.83333 0C5.3725 0 5 0.373333 5 0.833333V1.66667H4.16667C1.86917 1.66667 0 3.53583 0 5.83333V15.8333C0 18.1308 1.86917 20 4.16667 20H15.8333C18.1308 20 20 18.1308 20 15.8333V5.83333C20 3.53583 18.1308 1.66667 15.8333 1.66667ZM4.16667 3.33333H15.8333C17.2117 3.33333 18.3333 4.455 18.3333 5.83333V6.66667H1.66667V5.83333C1.66667 4.455 2.78833 3.33333 4.16667 3.33333ZM15.8333 18.3333H4.16667C2.78833 18.3333 1.66667 17.2117 1.66667 15.8333V8.33333H18.3333V15.8333C18.3333 17.2117 17.2117 18.3333 15.8333 18.3333ZM14.86 10.96C15.18 11.2908 15.17 11.8192 14.8392 12.1383L10.8892 15.945C10.4283 16.4058 9.8 16.6667 9.1325 16.6667C8.465 16.6667 7.83667 16.4067 7.365 15.9342L5.48833 14.1908C5.15167 13.8775 5.13167 13.35 5.445 13.0133C5.76 12.6758 6.28667 12.6575 6.6225 12.97L8.52083 14.7342C8.88167 15.0925 9.40667 15.0692 9.72 14.7558L13.6817 10.9375C14.0133 10.6183 14.54 10.6283 14.86 10.9592V10.96Z" fill="#00295D"/>
</g>
<defs>
<clipPath id="clip0_31_1147">
<rect width="20" height="20" fill="white"/>
</clipPath>
</defs>
</svg>
