<svg width="21" height="20" viewBox="0 0 21 20" fill="none" xmlns="http://www.w3.org/2000/svg">
<g clip-path="url(#clip0_653_9940)">
<path d="M9.77232 14.338C9.32814 14.3745 8.88771 14.2328 8.5482 13.944L4.67616 10.6581C4.2595 10.3042 4.20848 9.67965 4.56218 9.26288C4.91602 8.84622 5.5406 8.7952 5.95737 9.14891L9.60112 12.2423L17.7849 2.60248C18.1388 2.18583 18.7634 2.13481 19.1801 2.48851C19.5968 2.84235 19.6478 3.46693 19.2941 3.8837L10.9163 13.7506C10.6281 14.0906 10.2165 14.3019 9.77232 14.338Z" fill="#00B78F"/>
</g>
<path d="M15.1392 3.73581C15.4326 3.38325 15.3865 2.85624 15.0098 2.59453C13.7744 1.73623 12.3503 1.17935 10.8522 0.974413C9.07901 0.73185 7.27334 0.992066 5.64079 1.72543C4.00824 2.4588 2.61442 3.63584 1.61804 5.12254C0.621664 6.60923 0.0627634 8.34583 0.00498212 10.1346C-0.0527992 11.9234 0.392861 13.6924 1.29122 15.2403C2.18957 16.7882 3.50452 18.0528 5.08634 18.89C6.66815 19.7272 8.45327 20.1034 10.2384 19.9757C11.7467 19.8679 13.2037 19.4041 14.4919 18.6273C14.8847 18.3905 14.9647 17.8675 14.6947 17.4968C14.4246 17.126 13.907 17.0486 13.5099 17.2783C12.4766 17.8759 11.3178 18.2333 10.12 18.3189C8.64509 18.4244 7.17024 18.1135 5.86336 17.4218C4.55647 16.7302 3.47007 15.6854 2.72786 14.4065C1.98564 13.1277 1.61744 11.6661 1.66518 10.1882C1.71292 8.71036 2.17468 7.2756 2.99788 6.0473C3.82108 4.819 4.97264 3.84654 6.32144 3.24064C7.67024 2.63474 9.16208 2.41975 10.6271 2.62015C11.8169 2.78291 12.9502 3.21435 13.9428 3.8774C14.3242 4.13219 14.8457 4.08837 15.1392 3.73581Z" fill="#00B78F"/>
<path d="M16.39 15.8707C16.7492 16.156 17.275 16.0979 17.528 15.7154C18.2593 14.6097 18.7543 13.3614 18.978 12.0487C19.2017 10.736 19.1482 9.39418 18.8244 8.10877C18.7123 7.66397 18.2354 7.43498 17.802 7.5852C17.3687 7.73542 17.1437 8.20802 17.2476 8.65479C17.4846 9.6739 17.5173 10.7328 17.3406 11.7696C17.1639 12.8065 16.7823 13.7948 16.2211 14.6779C15.9751 15.065 16.0308 15.5855 16.39 15.8707Z" fill="#00B78F"/>
<defs>
<clipPath id="clip0_653_9940">
<rect width="15.7007" height="15.7007" fill="white" transform="translate(3.61914 1.27832) rotate(-4.67008)"/>
</clipPath>
</defs>
</svg>
