<svg width="20" height="20" viewBox="0 0 20 20" fill="none" xmlns="http://www.w3.org/2000/svg">
<g clip-path="url(#clip0_1029_8669)">
<path d="M2.34442 12.8891L1.28887 17.4447C1.25245 17.6112 1.2537 17.7838 1.29252 17.9497C1.33134 18.1157 1.40675 18.2709 1.51323 18.4041C1.61972 18.5372 1.7546 18.6448 1.90802 18.7191C2.06144 18.7934 2.22952 18.8325 2.39998 18.8336C2.47941 18.8416 2.55944 18.8416 2.63887 18.8336L7.2222 17.778L16.0222 9.01133L11.1111 4.11133L2.34442 12.8891Z" fill="#325BD9"/>
<path d="M18.7889 4.62231L15.5111 1.34454C15.2956 1.13013 15.004 1.00977 14.7 1.00977C14.396 1.00977 14.1044 1.13013 13.8889 1.34454L12.0667 3.16676L16.9722 8.07231L18.7944 6.25009C18.9011 6.14291 18.9855 6.01576 19.043 5.87591C19.1004 5.73605 19.1297 5.58624 19.1292 5.43505C19.1287 5.28386 19.0984 5.13425 19.04 4.9948C18.9816 4.85534 18.8962 4.72876 18.7889 4.62231Z" fill="#325BD9"/>
</g>
<defs>
<clipPath id="clip0_1029_8669">
<rect width="20" height="20" fill="white"/>
</clipPath>
</defs>
</svg>
