<svg width="20" height="20" viewBox="0 0 20 20" fill="none" xmlns="http://www.w3.org/2000/svg">
<path d="M11.7676 10.0002L19.634 2.13472C20.1223 1.64642 20.1223 0.854731 19.634 0.366469C19.1457 -0.121831 18.354 -0.121831 17.8658 0.366469L10.0002 8.23279L2.13472 0.366469C1.64642 -0.121831 0.854731 -0.121831 0.366469 0.366469C-0.121792 0.85477 -0.121831 1.64646 0.366469 2.13472L8.23279 10.0002L0.366469 17.8658C-0.121831 18.3541 -0.121831 19.1457 0.366469 19.634C0.85477 20.1223 1.64646 20.1223 2.13472 19.634L10.0002 11.7676L17.8657 19.634C18.354 20.1223 19.1457 20.1223 19.634 19.634C20.1223 19.1457 20.1223 18.354 19.634 17.8658L11.7676 10.0002Z" fill="black"/>
</svg>
