<svg width="50" height="50" viewBox="0 0 50 50" fill="none" xmlns="http://www.w3.org/2000/svg">
<rect width="50" height="50" rx="8" fill="#0FB2F3"/>
<g clip-path="url(#clip0_652_8349)">
<path d="M12 21.3333V20.2917C12 17.4198 14.3365 15.0833 17.2083 15.0833H18.25V14.0417C18.25 13.4667 18.7156 13 19.2917 13C19.8677 13 20.3333 13.4667 20.3333 14.0417V15.0833H28.6667V14.0417C28.6667 13.4667 29.1323 13 29.7083 13C30.2844 13 30.75 13.4667 30.75 14.0417V15.0833H31.7917C34.6635 15.0833 37 17.4198 37 20.2917V21.3333H12ZM37 23.4167V32.7917C37 35.6635 34.6635 38 31.7917 38H17.2083C14.3365 38 12 35.6635 12 32.7917V23.4167H37ZM30.575 26.7C30.175 26.2865 29.5167 26.274 29.1021 26.6729L24.15 31.4458C23.7583 31.8375 23.101 31.8667 22.651 31.4187L20.2781 29.2135C19.8583 28.8229 19.2 28.8448 18.8062 29.2677C18.4146 29.6885 18.4385 30.3479 18.8604 30.7396L21.2063 32.9187C21.7958 33.5094 22.5812 33.8344 23.4156 33.8344C24.25 33.8344 25.0365 33.5094 25.6115 32.9323L30.549 28.174C30.9625 27.775 30.975 27.1146 30.575 26.701V26.7Z" fill="white"/>
</g>
<defs>
<clipPath id="clip0_652_8349">
<rect width="25" height="25" fill="white" transform="translate(12 13)"/>
</clipPath>
</defs>
</svg>
