<svg width="50" height="50" viewBox="0 0 50 50" fill="none" xmlns="http://www.w3.org/2000/svg">
<rect width="50" height="50" rx="8" fill="#108AD7"/>
<path d="M34.4745 28.5116C33.8731 27.9393 33.0743 27.6207 32.2441 27.6219C31.4139 27.623 30.616 27.9439 30.0162 28.5178L28.0308 30.1908C26.4097 29.5197 24.9372 28.5348 23.698 27.2927C22.4588 26.0507 21.4773 24.5759 20.8099 22.9533L22.4766 20.9741C23.0506 20.3742 23.3714 19.5764 23.3726 18.7462C23.3738 17.916 23.0551 17.1172 22.4829 16.5158C22.4829 16.5158 20.5537 14.0105 20.5224 13.9772C19.9276 13.3792 19.1215 13.0389 18.2781 13.03C17.4347 13.021 16.6215 13.344 16.0141 13.9293L14.8172 14.971C6.77557 23.522 27.5256 44.2814 36.0672 36.1168L37.0172 35.0241C37.6209 34.4188 37.9599 33.5988 37.9599 32.7439C37.9599 31.889 37.6209 31.069 37.0172 30.4637C36.9829 30.4366 34.4745 28.5074 34.4745 28.5074V28.5116Z" fill="white"/>
</svg>
