<svg width="50" height="50" viewBox="0 0 50 50" fill="none" xmlns="http://www.w3.org/2000/svg">
<rect width="50" height="50" rx="8" fill="#2A4EBC"/>
<g clip-path="url(#clip0_652_8340)">
<path d="M25 12.5C22.5277 12.5 20.111 13.2331 18.0554 14.6066C15.9998 15.9801 14.3976 17.9324 13.4515 20.2165C12.5054 22.5005 12.2579 25.0139 12.7402 27.4386C13.2225 29.8634 14.413 32.0907 16.1612 33.8388C17.9093 35.587 20.1366 36.7775 22.5614 37.2598C24.9861 37.7421 27.4995 37.4946 29.7836 36.5485C32.0676 35.6024 34.0199 34.0002 35.3934 31.9446C36.7669 29.889 37.5 27.4723 37.5 25C37.4964 21.6859 36.1783 18.5086 33.8349 16.1651C31.4915 13.8217 28.3141 12.5036 25 12.5V12.5ZM25 27.0833C24.5418 27.0849 24.0959 26.9349 23.7318 26.6566C23.3677 26.3784 23.1059 25.9876 22.987 25.5451C22.8681 25.1025 22.8989 24.6331 23.0746 24.2099C23.2503 23.7867 23.561 23.4335 23.9583 23.2052V19.7917C23.9583 19.5154 24.0681 19.2504 24.2634 19.0551C24.4588 18.8597 24.7237 18.75 25 18.75C25.2763 18.75 25.5412 18.8597 25.7366 19.0551C25.9319 19.2504 26.0417 19.5154 26.0417 19.7917V23.2052C26.439 23.4335 26.7497 23.7867 26.9254 24.2099C27.1011 24.6331 27.1319 25.1025 27.013 25.5451C26.8941 25.9876 26.6323 26.3784 26.2682 26.6566C25.9041 26.9349 25.4582 27.0849 25 27.0833V27.0833Z" fill="#FFFFFC"/>
</g>
<defs>
<clipPath id="clip0_652_8340">
<rect width="25" height="25" fill="white" transform="translate(12.5 12.5)"/>
</clipPath>
</defs>
</svg>
