<svg width="14" height="14" viewBox="0 0 14 14" fill="none" xmlns="http://www.w3.org/2000/svg">
<g clip-path="url(#clip0_647_7946)">
<path d="M8.23742 7.00047L13.7439 1.49462C14.0857 1.15281 14.0857 0.598629 13.7439 0.256846C13.4021 -0.0849643 12.8479 -0.0849643 12.5061 0.256846L7.00022 5.76327L1.49438 0.256846C1.15257 -0.0849643 0.598385 -0.0849643 0.256602 0.256846C-0.0851811 0.598656 -0.0852084 1.15284 0.256602 1.49462L5.76302 7.00047L0.256602 12.5063C-0.0852084 12.8482 -0.0852084 13.4023 0.256602 13.7441C0.598412 14.0859 1.15259 14.0859 1.49438 13.7441L7.00022 8.23767L12.5061 13.7441C12.8479 14.0859 13.4021 14.0859 13.7438 13.7441C14.0857 13.4023 14.0857 12.8481 13.7438 12.5063L8.23742 7.00047Z" fill="#FF0000"/>
</g>
<defs>
<clipPath id="clip0_647_7946">
<rect width="14" height="14" fill="white"/>
</clipPath>
</defs>
</svg>
