<svg width="30" height="30" viewBox="0 0 30 30" fill="none" xmlns="http://www.w3.org/2000/svg">
<path d="M22.5 7.50075C22.2656 7.26641 21.9477 7.13477 21.6163 7.13477C21.2848 7.13477 20.9669 7.26641 20.7325 7.50075L15 13.2332L9.26752 7.50075C9.03311 7.26641 8.71522 7.13477 8.38377 7.13477C8.05231 7.13477 7.73443 7.26641 7.50002 7.50075C7.26568 7.73516 7.13403 8.05304 7.13403 8.3845C7.13403 8.71595 7.26568 9.03384 7.50002 9.26825L13.2325 15.0007L7.50002 20.7332C7.26568 20.9677 7.13403 21.2855 7.13403 21.617C7.13403 21.9485 7.26568 22.2663 7.50002 22.5007C7.73443 22.7351 8.05231 22.8667 8.38377 22.8667C8.71522 22.8667 9.03311 22.7351 9.26752 22.5007L15 16.7682L20.7325 22.5007C20.9669 22.7351 21.2848 22.8667 21.6163 22.8667C21.9477 22.8667 22.2656 22.7351 22.5 22.5007C22.7344 22.2663 22.866 21.9485 22.866 21.617C22.866 21.2855 22.7344 20.9677 22.5 20.7332L16.7675 15.0007L22.5 9.26825C22.7344 9.03384 22.866 8.71595 22.866 8.3845C22.866 8.05304 22.7344 7.73516 22.5 7.50075Z" fill="black"/>
</svg>
