<svg width="40" height="40" viewBox="0 0 40 40" fill="none" xmlns="http://www.w3.org/2000/svg">
<g clip-path="url(#clip0_13_93)">
<path d="M31.6667 1.66675H8.33333C6.12401 1.66939 4.00593 2.54822 2.4437 4.11045C0.88147 5.67268 0.00264643 7.79076 0 10.0001L0 30.0001C0.00264643 32.2094 0.88147 34.3275 2.4437 35.8897C4.00593 37.4519 6.12401 38.3308 8.33333 38.3334H31.6667C33.876 38.3308 35.9941 37.4519 37.5563 35.8897C39.1185 34.3275 39.9974 32.2094 40 30.0001V10.0001C39.9974 7.79076 39.1185 5.67268 37.5563 4.11045C35.9941 2.54822 33.876 1.66939 31.6667 1.66675ZM8.33333 5.00008H31.6667C32.6646 5.00204 33.6392 5.30261 34.4649 5.86309C35.2906 6.42357 35.9298 7.21833 36.3 8.14508L23.5367 20.9101C22.5974 21.8456 21.3257 22.3709 20 22.3709C18.6743 22.3709 17.4026 21.8456 16.4633 20.9101L3.7 8.14508C4.07025 7.21833 4.70936 6.42357 5.53508 5.86309C6.3608 5.30261 7.33536 5.00204 8.33333 5.00008ZM31.6667 35.0001H8.33333C7.00725 35.0001 5.73548 34.4733 4.7978 33.5356C3.86012 32.5979 3.33333 31.3262 3.33333 30.0001V12.5001L14.1067 23.2667C15.671 24.8272 17.7904 25.7035 20 25.7035C22.2096 25.7035 24.329 24.8272 25.8933 23.2667L36.6667 12.5001V30.0001C36.6667 31.3262 36.1399 32.5979 35.2022 33.5356C34.2645 34.4733 32.9927 35.0001 31.6667 35.0001Z" fill="#00295D"/>
</g>
<defs>
<clipPath id="clip0_13_93">
<rect width="40" height="40" fill="white"/>
</clipPath>
</defs>
</svg>
