<svg width="20" height="20" viewBox="0 0 20 20" fill="none" xmlns="http://www.w3.org/2000/svg">
<g clip-path="url(#clip0_230_10533)">
<path d="M15.8333 5H14.8117C15.9892 3.85 16.1692 2.3375 15.2658 1.13333C14.8117 0.526665 14.1492 0.134998 13.4 0.0283318C12.6483 -0.0808349 11.9042 0.113332 11.2992 0.566665C10.7342 0.989999 10.3175 1.52917 10.01 2.0775C9.7025 1.52833 9.28583 0.989999 8.72083 0.566665C8.11583 0.112498 7.37 -0.0808349 6.62083 0.0283318C5.87167 0.134998 5.20917 0.527498 4.755 1.13333C3.85667 2.33083 4.03 3.83333 5.21083 5H4.16667C1.86917 5 0 6.86917 0 9.16667V15.8333C0 18.1308 1.86917 20 4.16667 20H15.8333C18.1308 20 20 18.1308 20 15.8333V9.16667C20 6.86917 18.1308 5 15.8333 5ZM12.3 1.9C12.5042 1.74667 12.7475 1.66667 12.9975 1.66667C13.3333 1.66667 13.7458 1.88417 13.9333 2.13333C14.4675 2.845 13.9692 3.50333 13.6475 3.81083C12.3467 4.965 10.9667 5 10.8492 5.00083H10.8383C10.8542 4.925 10.8592 4.84583 10.8525 4.765L10.8508 4.7475C10.925 4.24917 11.235 2.69917 12.3 1.90083V1.9ZM6.39667 3.83C6.05167 3.50083 5.55417 2.845 6.08833 2.1325C6.27583 1.88333 6.54833 1.72167 6.85667 1.6775C7.1675 1.6375 7.4725 1.71333 7.72167 1.9C8.7875 2.69917 9.0975 4.25167 9.17167 4.74667L9.17 4.76417C9.16333 4.845 9.16833 4.92417 9.18417 5H9.17333C9.05583 5 7.67583 4.965 6.39667 3.83083V3.83ZM4.16667 6.66583H9.02C8.39417 8.29167 5.965 8.33167 5.83167 8.3325C5.37167 8.3325 4.99917 8.70583 4.99917 9.16583C4.99917 9.62583 5.3725 9.99917 5.8325 9.99917C7.01333 9.99917 8.91333 9.5925 9.99917 8.28583C11.085 9.59333 12.985 9.99917 14.1658 9.99917C14.6258 9.99917 14.9992 9.62667 14.9992 9.16583C14.9992 8.705 14.6258 8.3325 14.1658 8.3325C14.0475 8.3325 11.6008 8.31083 10.9767 6.66583H15.8325C17.2108 6.66583 18.3325 7.7875 18.3325 9.16583V14.1658H1.66667V9.16583C1.66667 7.7875 2.78833 6.66583 4.16667 6.66583ZM15.8333 18.3325H4.16667C2.78833 18.3325 1.66667 17.2108 1.66667 15.8325H18.3333C18.3333 17.2108 17.2117 18.3325 15.8333 18.3325Z" fill="#00295D"/>
</g>
<defs>
<clipPath id="clip0_230_10533">
<rect width="20" height="20" fill="white"/>
</clipPath>
</defs>
</svg>
