<svg width="38" height="39" viewBox="0 0 38 39" fill="none" xmlns="http://www.w3.org/2000/svg">
<circle cx="19" cy="19.2266" r="19" transform="rotate(-180 19 19.2266)" fill="#DAEEED"/>
<path d="M13.3608 16.3562L13.368 22.5427C13.3696 23.0809 13.5841 23.5965 13.9646 23.977C14.3452 24.3576 14.8608 24.5721 15.399 24.5737L21.5855 24.5809C21.8546 24.5801 22.1124 24.4728 22.3027 24.2826C22.493 24.0923 22.6002 23.8345 22.601 23.5654C22.6016 23.4309 22.5755 23.2977 22.5243 23.1734C22.4731 23.0491 22.3978 22.9361 22.3027 22.841C22.2076 22.7459 22.0947 22.6706 21.9703 22.6194C21.846 22.5682 21.7128 22.5422 21.5783 22.5427L16.8394 22.5427L24.7616 14.6205C24.9526 14.4295 25.0599 14.1704 25.0599 13.9003C25.0599 13.6302 24.9526 13.3711 24.7616 13.1801C24.5706 12.9891 24.3115 12.8818 24.0414 12.8818C23.7713 12.8818 23.5122 12.9891 23.3212 13.1801L15.399 21.1023L15.399 16.3634C15.3999 16.0931 15.2935 15.8335 15.1031 15.6417C14.9126 15.4499 14.6538 15.3416 14.3835 15.3407C14.1132 15.3397 13.8536 15.4462 13.6618 15.6366C13.4701 15.8271 13.3618 16.0859 13.3608 16.3562Z" fill="#00B78F"/>
</svg>
