<svg width="49" height="40" viewBox="0 0 49 40" fill="none" xmlns="http://www.w3.org/2000/svg">
<g clip-path="url(#clip0_230_11848)">
<path d="M48.9952 4.8717C47.1605 5.68447 45.2145 6.21798 43.2218 6.45447C45.2974 5.21045 46.8911 3.2405 47.6415 0.893323C45.6684 2.0642 43.5097 2.88916 41.2586 3.33256C39.4249 1.37906 36.8126 0.158203 33.9213 0.158203C28.37 0.158203 23.8691 4.65887 23.8691 10.2099C23.8691 10.9978 23.9581 11.7649 24.1294 12.5008C15.7753 12.0815 8.36861 8.07973 3.41072 1.9982C2.54565 3.4828 2.04995 5.20969 2.04995 7.0516C2.04995 10.5391 3.82469 13.6156 6.52172 15.4183C4.92545 15.3683 3.3643 14.9372 1.96861 14.1609C1.96804 14.203 1.96804 14.2451 1.96804 14.2874C1.96804 19.1576 5.43292 23.2204 10.0312 24.1438C8.55098 24.5464 6.99833 24.6053 5.49187 24.3161C6.77091 28.3096 10.4833 31.2156 14.8817 31.297C11.4415 33.9928 7.10718 35.5999 2.39789 35.5999C1.58641 35.5999 0.786412 35.5523 0 35.4594C4.44842 38.3115 9.73206 39.9756 15.4086 39.9756C33.898 39.9756 44.0084 24.6587 44.0084 11.3756C44.0084 10.9396 43.9989 10.5061 43.9793 10.0751C45.9472 8.65253 47.6458 6.89048 48.9952 4.8717Z" fill="#55ACEE"/>
</g>
<defs>
<clipPath id="clip0_230_11848">
<rect width="48.9952" height="40" fill="white"/>
</clipPath>
</defs>
</svg>
