<svg width="50" height="50" viewBox="0 0 50 50" fill="none" xmlns="http://www.w3.org/2000/svg">
<g clip-path="url(#clip0_230_11831)">
<path d="M1.05899 24.7013C1.05782 28.9022 2.1555 33.0042 4.24271 36.6197L0.859375 48.9728L13.5012 45.6581C16.9978 47.5616 20.9155 48.559 24.8966 48.5592H24.907C38.0495 48.5592 48.7477 37.8648 48.7534 24.7201C48.7559 18.3505 46.2776 12.361 41.7749 7.85475C37.2729 3.34894 31.2855 0.866188 24.9061 0.863281C11.7621 0.863281 1.06461 11.5571 1.05918 24.7013" fill="url(#paint0_linear_230_11831)"/>
<path d="M0.207364 24.693C0.206008 29.0452 1.34302 33.2938 3.50465 37.0388L0 49.8347L13.0952 46.4012C16.7033 48.3684 20.7657 49.4056 24.8994 49.4072H24.9101C38.524 49.4072 49.6066 38.3281 49.6124 24.7128C49.6147 18.1143 47.0473 11.9095 42.3837 7.24186C37.7196 2.57481 31.518 0.00271318 24.9101 0C11.2938 0 0.212984 11.0775 0.207558 24.693H0.207364ZM8.00581 36.3938L7.51686 35.6176C5.46143 32.3494 4.37655 28.5727 4.3781 24.6946C4.38256 13.3777 13.5926 4.17054 24.9178 4.17054C30.4023 4.17287 35.5566 6.31085 39.4333 10.1899C43.3099 14.0694 45.443 19.2264 45.4417 24.7112C45.4366 36.0281 36.2264 45.2364 24.9101 45.2364H24.9019C21.2172 45.2345 17.6035 44.245 14.4519 42.375L13.7019 41.9302L5.93101 43.9676L8.00581 36.3936V36.3938Z" fill="url(#paint1_linear_230_11831)"/>
<path d="M18.7353 14.3699C18.2729 13.3422 17.7863 13.3214 17.3466 13.3034C16.9865 13.2879 16.5749 13.2891 16.1636 13.2891C15.752 13.2891 15.0832 13.4439 14.5179 14.0612C13.952 14.679 12.3574 16.172 12.3574 19.2087C12.3574 22.2455 14.5692 25.1802 14.8776 25.5924C15.1863 26.0038 19.1475 32.4348 25.4212 34.9088C30.6351 36.9649 31.6962 36.5559 32.8278 36.4528C33.9596 36.3501 36.4797 34.9602 36.9939 33.5189C37.5084 32.0778 37.5084 30.8426 37.3541 30.5844C37.1999 30.3273 36.7882 30.1728 36.171 29.8643C35.5535 29.5556 32.519 28.0623 31.9533 27.8563C31.3875 27.6505 30.976 27.5478 30.5644 28.1658C30.1528 28.7829 28.9708 30.1728 28.6105 30.5844C28.2506 30.997 27.8904 31.0484 27.2733 30.7397C26.6557 30.43 24.6679 29.779 22.3096 27.6765C20.4747 26.0404 19.2359 24.0201 18.8758 23.4021C18.5158 22.785 18.8373 22.4505 19.1468 22.143C19.4241 21.8664 19.7642 21.4222 20.0731 21.062C20.3809 20.7015 20.4836 20.4443 20.6894 20.0327C20.8954 19.6207 20.7923 19.2602 20.6382 18.9515C20.4836 18.6428 19.2842 15.5904 18.7353 14.3701" fill="white"/>
</g>
<defs>
<linearGradient id="paint0_linear_230_11831" x1="24.8064" y1="48.9728" x2="24.8064" y2="0.863281" gradientUnits="userSpaceOnUse">
<stop stop-color="#1FAF38"/>
<stop offset="1" stop-color="#60D669"/>
</linearGradient>
<linearGradient id="paint1_linear_230_11831" x1="24.8062" y1="49.8347" x2="24.8062" y2="0" gradientUnits="userSpaceOnUse">
<stop stop-color="#F9F9F9"/>
<stop offset="1" stop-color="white"/>
</linearGradient>
<clipPath id="clip0_230_11831">
<rect width="49.6124" height="50" fill="white"/>
</clipPath>
</defs>
</svg>
