<svg width="14" height="16" viewBox="0 0 14 16" fill="none" xmlns="http://www.w3.org/2000/svg">
<g clip-path="url(#clip0_625_7746)">
<path d="M6.81817 0.421387C5.31177 0.423206 3.86754 1.08227 2.80235 2.25398C1.73716 3.42569 1.13801 5.01434 1.13635 6.67139C1.13635 9.97264 5.90908 14.5045 6.45113 15.0108L6.81817 15.352L7.18522 15.0108C7.72726 14.5045 12.5 9.97264 12.5 6.67139C12.4983 5.01434 11.8992 3.42569 10.834 2.25398C9.76881 1.08227 8.32458 0.423206 6.81817 0.421387V0.421387ZM6.81817 9.79639C6.25629 9.79639 5.70703 9.61311 5.23985 9.26973C4.77266 8.92635 4.40854 8.43829 4.19351 7.86727C3.97849 7.29625 3.92223 6.66792 4.03185 6.06173C4.14147 5.45554 4.41204 4.89872 4.80935 4.46168C5.20665 4.02464 5.71285 3.72701 6.26394 3.60643C6.81502 3.48585 7.38623 3.54774 7.90534 3.78426C8.42445 4.02079 8.86814 4.42133 9.1803 4.93523C9.49246 5.44913 9.65908 6.05332 9.65908 6.67139C9.65818 7.49988 9.35858 8.29416 8.826 8.88C8.29342 9.46584 7.57135 9.79539 6.81817 9.79639Z" fill="white"/>
<path d="M6.81819 8.54639C7.75959 8.54639 8.52274 7.70692 8.52274 6.67139C8.52274 5.63585 7.75959 4.79639 6.81819 4.79639C5.8768 4.79639 5.11365 5.63585 5.11365 6.67139C5.11365 7.70692 5.8768 8.54639 6.81819 8.54639Z" fill="white"/>
</g>
<defs>
<clipPath id="clip0_625_7746">
<rect width="13.6364" height="15" fill="white" transform="translate(0 0.421387)"/>
</clipPath>
</defs>
</svg>
