<svg width="20" height="20" viewBox="0 0 20 20" fill="none" xmlns="http://www.w3.org/2000/svg">
<circle cx="10" cy="10" r="10" fill="#0FB2F3"/>
<g clip-path="url(#clip0_653_9949)">
<path d="M9.98072 4C8.88027 4.00138 7.82524 4.50249 7.04711 5.39338C6.26897 6.28426 5.83129 7.49216 5.83008 8.75207C5.83008 11.2621 9.31662 14.7078 9.71259 15.0927L9.98072 15.3522L10.2489 15.0927C10.6448 14.7078 14.1314 11.2621 14.1314 8.75207C14.1302 7.49216 13.6925 6.28426 12.9143 5.39338C12.1362 4.50249 11.0812 4.00138 9.98072 4V4ZM9.98072 11.1281C9.57026 11.1281 9.16902 10.9887 8.82773 10.7277C8.48645 10.4666 8.22045 10.0955 8.06337 9.66133C7.9063 9.22717 7.8652 8.74943 7.94528 8.28853C8.02535 7.82762 8.22301 7.40425 8.51325 7.07196C8.80349 6.73966 9.17327 6.51337 9.57584 6.42169C9.97842 6.33001 10.3957 6.37706 10.7749 6.5569C11.1541 6.73673 11.4782 7.04128 11.7063 7.43201C11.9343 7.82275 12.056 8.28213 12.056 8.75207C12.0554 9.382 11.8365 9.98591 11.4475 10.4313C11.0584 10.8768 10.5309 11.1273 9.98072 11.1281Z" fill="white"/>
<path d="M9.98054 10.1779C10.6682 10.1779 11.2257 9.53963 11.2257 8.75228C11.2257 7.96493 10.6682 7.32666 9.98054 7.32666C9.29284 7.32666 8.73535 7.96493 8.73535 8.75228C8.73535 9.53963 9.29284 10.1779 9.98054 10.1779Z" fill="white"/>
</g>
<defs>
<clipPath id="clip0_653_9949">
<rect width="9.96154" height="11.405" fill="white" transform="translate(5 4)"/>
</clipPath>
</defs>
</svg>
