<svg width="18" height="20" viewBox="0 0 18 20" fill="none" xmlns="http://www.w3.org/2000/svg">
<g clip-path="url(#clip0_866_4032)">
<path d="M8.73441 0C6.80464 0.00242633 4.95451 0.881179 3.58996 2.44346C2.22541 4.00573 1.45787 6.12394 1.45575 8.33333C1.45575 12.735 7.56982 18.7775 8.26421 19.4525L8.73441 19.9075L9.20461 19.4525C9.899 18.7775 16.0131 12.735 16.0131 8.33333C16.011 6.12394 15.2434 4.00573 13.8789 2.44346C12.5143 0.881179 10.6642 0.00242633 8.73441 0V0ZM8.73441 12.5C8.01462 12.5 7.31099 12.2556 6.71251 11.7978C6.11402 11.34 5.64756 10.6892 5.37211 9.92785C5.09666 9.16649 5.02458 8.32871 5.16501 7.52046C5.30543 6.7122 5.65205 5.96977 6.16102 5.38706C6.66998 4.80434 7.31845 4.4075 8.02441 4.24673C8.73037 4.08596 9.46212 4.16847 10.1271 4.48384C10.7921 4.7992 11.3605 5.33325 11.7604 6.01846C12.1603 6.70366 12.3737 7.50924 12.3737 8.33333C12.3726 9.438 11.9888 10.497 11.3065 11.2782C10.6243 12.0593 9.69927 12.4987 8.73441 12.5Z" fill="#00295D" fill-opacity="0.5"/>
<path d="M8.73438 10.8333C9.94035 10.8333 10.918 9.71396 10.918 8.33325C10.918 6.95254 9.94035 5.83325 8.73438 5.83325C7.52841 5.83325 6.55078 6.95254 6.55078 8.33325C6.55078 9.71396 7.52841 10.8333 8.73438 10.8333Z" fill="#00295D" fill-opacity="0.5"/>
</g>
<defs>
<clipPath id="clip0_866_4032">
<rect width="17.4688" height="20" fill="white"/>
</clipPath>
</defs>
</svg>
