<svg width="20" height="21" viewBox="0 0 20 21" fill="none" xmlns="http://www.w3.org/2000/svg">
<g clip-path="url(#clip0_1762_8201)">
<path d="M10 3.5599C10.9205 3.5599 11.6667 2.8137 11.6667 1.89323C11.6667 0.972755 10.9205 0.226562 10 0.226562C9.07957 0.226562 8.33337 0.972755 8.33337 1.89323C8.33337 2.8137 9.07957 3.5599 10 3.5599Z" fill="#00295D"/>
<path d="M10 11.8939C10.9205 11.8939 11.6667 11.1477 11.6667 10.2272C11.6667 9.30674 10.9205 8.56055 10 8.56055C9.07957 8.56055 8.33337 9.30674 8.33337 10.2272C8.33337 11.1477 9.07957 11.8939 10 11.8939Z" fill="#00295D"/>
<path d="M10 20.2259C10.9205 20.2259 11.6667 19.4797 11.6667 18.5592C11.6667 17.6388 10.9205 16.8926 10 16.8926C9.07957 16.8926 8.33337 17.6388 8.33337 18.5592C8.33337 19.4797 9.07957 20.2259 10 20.2259Z" fill="#00295D"/>
</g>
<defs>
<clipPath id="clip0_1762_8201">
<rect width="20" height="20" fill="white" transform="translate(0 0.226562)"/>
</clipPath>
</defs>
</svg>
