<svg width="56" height="56" viewBox="0 0 56 56" fill="none" xmlns="http://www.w3.org/2000/svg">
<g clip-path="url(#clip0_13_54)">
<path d="M35.0002 56H21.0002C14.5672 56 9.3335 50.7663 9.3335 44.3333V11.6667C9.3335 5.23367 14.5672 0 21.0002 0H35.0002C41.4332 0 46.6668 5.23367 46.6668 11.6667V44.3333C46.6668 50.7663 41.4332 56 35.0002 56ZM21.0002 4.66667C17.1408 4.66667 14.0002 7.80733 14.0002 11.6667V44.3333C14.0002 48.1927 17.1408 51.3333 21.0002 51.3333H35.0002C38.8595 51.3333 42.0002 48.1927 42.0002 44.3333V11.6667C42.0002 7.80733 38.8595 4.66667 35.0002 4.66667H21.0002ZM32.6668 44.3333C32.6668 43.0453 31.6215 42 30.3335 42H25.6668C24.3788 42 23.3335 43.0453 23.3335 44.3333C23.3335 45.6213 24.3788 46.6667 25.6668 46.6667H30.3335C31.6215 46.6667 32.6668 45.6213 32.6668 44.3333Z" fill="#00295D"/>
</g>
<defs>
<clipPath id="clip0_13_54">
<rect width="56" height="56" fill="white"/>
</clipPath>
</defs>
</svg>
