<svg width="30" height="30" viewBox="0 0 30 30" fill="none" xmlns="http://www.w3.org/2000/svg">
<rect width="30" height="30" rx="15" fill="#00295D"/>
<path d="M18.305 12.9386L13.8425 8.47607C13.6603 8.295 13.4139 8.19336 13.1571 8.19336C12.9002 8.19336 12.6538 8.295 12.4717 8.47607C12.3805 8.56646 12.3082 8.67398 12.2589 8.79246C12.2095 8.91093 12.1841 9.03801 12.1841 9.16635C12.1841 9.2947 12.2095 9.42177 12.2589 9.54025C12.3082 9.65872 12.3805 9.76625 12.4717 9.85663L16.9439 14.3094C17.035 14.3998 17.1073 14.5073 17.1567 14.6258C17.2061 14.7443 17.2315 14.8713 17.2315 14.9997C17.2315 15.128 17.2061 15.2551 17.1567 15.3736C17.1073 15.4921 17.035 15.5996 16.9439 15.69L12.4717 20.1427C12.2886 20.3245 12.1852 20.5716 12.1843 20.8296C12.1834 21.0876 12.285 21.3354 12.4668 21.5184C12.6486 21.7015 12.8957 21.8049 13.1536 21.8058C13.4116 21.8067 13.6594 21.7051 13.8425 21.5233L18.305 17.0608C18.8512 16.5139 19.158 15.7726 19.158 14.9997C19.158 14.2268 18.8512 13.4855 18.305 12.9386Z" fill="white"/>
<path d="M18.305 12.9386L13.8425 8.47607C13.6603 8.295 13.4139 8.19336 13.1571 8.19336C12.9002 8.19336 12.6538 8.295 12.4717 8.47607C12.3805 8.56646 12.3082 8.67398 12.2589 8.79246C12.2095 8.91093 12.1841 9.03801 12.1841 9.16635C12.1841 9.2947 12.2095 9.42177 12.2589 9.54025C12.3082 9.65872 12.3805 9.76625 12.4717 9.85663L16.9439 14.3094C17.035 14.3998 17.1073 14.5073 17.1567 14.6258C17.2061 14.7443 17.2315 14.8713 17.2315 14.9997C17.2315 15.128 17.2061 15.2551 17.1567 15.3736C17.1073 15.4921 17.035 15.5996 16.9439 15.69L12.4717 20.1427C12.2886 20.3245 12.1852 20.5716 12.1843 20.8296C12.1834 21.0876 12.285 21.3354 12.4668 21.5184C12.6486 21.7015 12.8957 21.8049 13.1536 21.8058C13.4116 21.8067 13.6594 21.7051 13.8425 21.5233L18.305 17.0608C18.8512 16.5139 19.158 15.7726 19.158 14.9997C19.158 14.2268 18.8512 13.4855 18.305 12.9386Z" fill="white"/>
</svg>
