<svg width="38" height="39" viewBox="0 0 38 39" fill="none" xmlns="http://www.w3.org/2000/svg">
<circle cx="19" cy="19.2266" r="19" fill="#FFE9D9"/>
<path d="M24.6392 22.0969L24.632 15.9104C24.6304 15.3723 24.4159 14.8566 24.0354 14.4761C23.6548 14.0955 23.1392 13.8811 22.601 13.8795L16.4145 13.8722C16.1454 13.873 15.8876 13.9803 15.6973 14.1706C15.507 14.3608 15.3998 14.6187 15.399 14.8877C15.3984 15.0222 15.4245 15.1554 15.4757 15.2797C15.5269 15.4041 15.6022 15.517 15.6973 15.6121C15.7924 15.7072 15.9053 15.7825 16.0297 15.8337C16.154 15.8849 16.2872 15.911 16.4217 15.9104L21.1606 15.9104L13.2384 23.8326C13.0474 24.0236 12.9401 24.2827 12.9401 24.5528C12.9401 24.823 13.0474 25.082 13.2384 25.273C13.4294 25.464 13.6885 25.5714 13.9586 25.5714C14.2287 25.5714 14.4878 25.464 14.6788 25.273L22.601 17.3508L22.601 22.0897C22.6001 22.36 22.7065 22.6196 22.8969 22.8114C23.0874 23.0032 23.3462 23.1115 23.6165 23.1124C23.8868 23.1134 24.1464 23.0069 24.3382 22.8165C24.5299 22.6261 24.6382 22.3672 24.6392 22.0969Z" fill="#F15728"/>
</svg>
