<svg width="40" height="40" viewBox="0 0 40 40" fill="none" xmlns="http://www.w3.org/2000/svg">
<rect width="40" height="40" rx="4" fill="#6F8CE4"/>
<g clip-path="url(#clip0_1841_9571)">
<path d="M12.7813 24.7469C12.2812 25.2469 12.0002 25.925 12 26.6322V28.0009H13.3687C14.0759 28.0007 14.754 27.7197 15.254 27.2196L24.1493 18.3242L21.6767 15.8516L12.7813 24.7469Z" fill="white"/>
<path d="M27.43 12.5693C27.2677 12.4068 27.0749 12.2778 26.8627 12.1899C26.6505 12.1019 26.423 12.0566 26.1933 12.0566C25.9636 12.0566 25.7362 12.1019 25.524 12.1899C25.3118 12.2778 25.119 12.4068 24.9567 12.5693L22.6193 14.9073L25.092 17.3799L27.43 15.0426C27.5925 14.8803 27.7214 14.6875 27.8094 14.4753C27.8973 14.2631 27.9426 14.0356 27.9426 13.8059C27.9426 13.5762 27.8973 13.3488 27.8094 13.1366C27.7214 12.9244 27.5925 12.7316 27.43 12.5693Z" fill="white"/>
</g>
<defs>
<clipPath id="clip0_1841_9571">
<rect width="16" height="16" fill="white" transform="translate(12 12)"/>
</clipPath>
</defs>
</svg>
