<svg width="12" height="12" viewBox="0 0 12 12" fill="none" xmlns="http://www.w3.org/2000/svg">
<g clip-path="url(#clip0_76_1320)">
<path d="M11.4265 0.573977C11.0866 0.234575 10.6259 0.0439453 10.1455 0.0439453C9.66515 0.0439453 9.20443 0.234575 8.86451 0.573977L0.732508 8.70598C0.499633 8.93754 0.314989 9.21299 0.189257 9.51637C0.0635245 9.81976 -0.000798988 10.1451 7.49061e-06 10.4735V11.5C7.49061e-06 11.6326 0.0526859 11.7598 0.146454 11.8535C0.240222 11.9473 0.367399 12 0.500008 12H1.52651C1.85489 12.0009 2.18019 11.9367 2.48359 11.811C2.78698 11.6854 3.06243 11.5008 3.29401 11.268L11.4265 3.13548C11.7658 2.79557 11.9563 2.33496 11.9563 1.85473C11.9563 1.37449 11.7658 0.913879 11.4265 0.573977ZM2.58701 10.561C2.30501 10.8411 1.92399 10.9988 1.52651 11H1.00001V10.4735C0.999502 10.2764 1.03809 10.0812 1.11353 9.8992C1.18897 9.71717 1.29976 9.5519 1.43951 9.41298L7.61101 3.24148L8.76101 4.39148L2.58701 10.561ZM10.719 2.42848L9.46601 3.68198L8.31601 2.53448L9.56951 1.28098C9.64502 1.20563 9.73463 1.1459 9.83322 1.10518C9.93182 1.06447 10.0375 1.04357 10.1441 1.04369C10.2508 1.0438 10.3564 1.06493 10.4549 1.10586C10.5534 1.14679 10.6429 1.20672 10.7183 1.28223C10.7936 1.35774 10.8533 1.44735 10.8941 1.54594C10.9348 1.64454 10.9557 1.75019 10.9555 1.85686C10.9554 1.96353 10.9343 2.06914 10.8934 2.16764C10.8524 2.26615 10.7925 2.35563 10.717 2.43098L10.719 2.42848Z" fill="#00295D"/>
</g>
<defs>
<clipPath id="clip0_76_1320">
<rect width="12" height="12" fill="white"/>
</clipPath>
</defs>
</svg>
