<svg width="20" height="20" viewBox="0 0 20 20" fill="none" xmlns="http://www.w3.org/2000/svg">
<g clip-path="url(#clip0_230_18742)">
<path d="M12.5 3.20759C12.5026 3.37331 12.5537 3.53465 12.6468 3.67175C12.7399 3.80885 12.8711 3.91574 13.0242 3.97925C14.3927 4.5814 15.55 5.57884 16.3475 6.8435C17.1451 8.10817 17.5464 9.58234 17.5 11.0768C17.4678 13.0659 16.6466 14.9607 15.2173 16.3444C13.788 17.7281 11.8675 18.4874 9.87836 18.4551C7.88923 18.4228 5.9944 17.6017 4.61069 16.1724C3.22699 14.743 2.46776 12.8225 2.50002 10.8334C2.50195 9.38027 2.92598 7.95898 3.72057 6.74232C4.51516 5.52566 5.64608 4.56603 6.97586 3.98009C7.12902 3.91619 7.2602 3.80898 7.35331 3.67161C7.44642 3.53424 7.49741 3.37268 7.50002 3.20675C7.50024 3.07026 7.46692 2.9358 7.40301 2.8152C7.33909 2.6946 7.24653 2.59155 7.13345 2.5151C7.02038 2.43865 6.89026 2.39114 6.75453 2.37675C6.6188 2.36236 6.48161 2.38154 6.35502 2.43259C4.42109 3.27104 2.83521 4.75037 1.86449 6.62141C0.893779 8.49245 0.597548 10.6409 1.0257 12.7048C1.45385 14.7687 2.58022 16.622 4.21508 17.9526C5.84995 19.2831 7.89341 20.0095 10.0013 20.0095C12.1091 20.0095 14.1526 19.2831 15.7875 17.9526C17.4223 16.622 18.5487 14.7687 18.9768 12.7048C19.405 10.6409 19.1088 8.49245 18.1381 6.62141C17.1673 4.75037 15.5815 3.27104 13.6475 2.43259C13.5207 2.38098 13.3832 2.3614 13.2471 2.37557C13.1109 2.38974 12.9804 2.43723 12.8669 2.51384C12.7535 2.59045 12.6607 2.69382 12.5967 2.81482C12.5327 2.93581 12.4995 3.07071 12.5 3.20759Z" fill="#00295D"/>
<path d="M10.8333 0.833333C10.8333 0.373096 10.4602 0 9.99996 0C9.53972 0 9.16663 0.373096 9.16663 0.833333V5.83333C9.16663 6.29357 9.53972 6.66667 9.99996 6.66667C10.4602 6.66667 10.8333 6.29357 10.8333 5.83333V0.833333Z" fill="#00295D"/>
</g>
<defs>
<clipPath id="clip0_230_18742">
<rect width="20" height="20" fill="white"/>
</clipPath>
</defs>
</svg>
