<svg width="30" height="30" viewBox="0 0 30 30" fill="none" xmlns="http://www.w3.org/2000/svg">
<g opacity="0.5">
<rect x="-0.5" y="0.5" width="29" height="29" rx="14.5" transform="matrix(-1 0 0 1 29 0)" fill="white" stroke="#00295D"/>
<path d="M12.445 12.9386L16.9075 8.47607C17.0897 8.295 17.3361 8.19336 17.5929 8.19336C17.8498 8.19336 18.0962 8.295 18.2783 8.47607C18.3695 8.56646 18.4418 8.67398 18.4911 8.79246C18.5405 8.91093 18.5659 9.03801 18.5659 9.16635C18.5659 9.2947 18.5405 9.42177 18.4911 9.54025C18.4418 9.65872 18.3695 9.76625 18.2783 9.85663L13.8061 14.3094C13.715 14.3998 13.6427 14.5073 13.5933 14.6258C13.5439 14.7443 13.5185 14.8713 13.5185 14.9997C13.5185 15.128 13.5439 15.2551 13.5933 15.3736C13.6427 15.4921 13.715 15.5996 13.8061 15.69L18.2783 20.1427C18.4614 20.3245 18.5648 20.5716 18.5657 20.8296C18.5666 21.0876 18.465 21.3354 18.2832 21.5184C18.1014 21.7015 17.8543 21.8049 17.5964 21.8058C17.3384 21.8067 17.0906 21.7051 16.9075 21.5233L12.445 17.0608C11.8988 16.5139 11.592 15.7726 11.592 14.9997C11.592 14.2268 11.8988 13.4855 12.445 12.9386Z" fill="#00295D"/>
<path d="M12.445 12.9386L16.9075 8.47607C17.0897 8.295 17.3361 8.19336 17.5929 8.19336C17.8498 8.19336 18.0962 8.295 18.2783 8.47607C18.3695 8.56646 18.4418 8.67398 18.4911 8.79246C18.5405 8.91093 18.5659 9.03801 18.5659 9.16635C18.5659 9.2947 18.5405 9.42177 18.4911 9.54025C18.4418 9.65872 18.3695 9.76625 18.2783 9.85663L13.8061 14.3094C13.715 14.3998 13.6427 14.5073 13.5933 14.6258C13.5439 14.7443 13.5185 14.8713 13.5185 14.9997C13.5185 15.128 13.5439 15.2551 13.5933 15.3736C13.6427 15.4921 13.715 15.5996 13.8061 15.69L18.2783 20.1427C18.4614 20.3245 18.5648 20.5716 18.5657 20.8296C18.5666 21.0876 18.465 21.3354 18.2832 21.5184C18.1014 21.7015 17.8543 21.8049 17.5964 21.8058C17.3384 21.8067 17.0906 21.7051 16.9075 21.5233L12.445 17.0608C11.8988 16.5139 11.592 15.7726 11.592 14.9997C11.592 14.2268 11.8988 13.4855 12.445 12.9386Z" fill="#00295D"/>
</g>
</svg>
