<svg width="22" height="20" viewBox="0 0 22 20" fill="none" xmlns="http://www.w3.org/2000/svg">
<g clip-path="url(#clip0_235_21233)">
<path d="M21.1871 18.5776L15.9038 13.6034C17.3436 11.9456 18.0514 9.83014 17.881 7.6947C17.7106 5.55926 16.6749 3.56717 14.9882 2.1305C13.3015 0.693821 11.0928 -0.0775273 8.81897 -0.0240008C6.54513 0.0295257 4.38013 0.903832 2.77179 2.41807C1.16344 3.93232 0.234797 5.97064 0.177944 8.11143C0.121091 10.2522 0.940376 12.3317 2.46634 13.9197C3.9923 15.5077 6.10818 16.4828 8.37633 16.6433C10.6445 16.8037 12.8914 16.1372 14.6522 14.7817L19.9355 19.7559C20.1025 19.9077 20.3261 19.9917 20.5581 19.9898C20.7902 19.9879 21.0122 19.9003 21.1763 19.7457C21.3404 19.5912 21.4335 19.3822 21.4355 19.1637C21.4375 18.9452 21.3483 18.7347 21.1871 18.5776ZM9.05473 15.0001C7.65424 15.0001 6.28521 14.6091 5.12074 13.8765C3.95628 13.144 3.0487 12.1028 2.51275 10.8846C1.97681 9.66644 1.83658 8.326 2.10981 7.03279C2.38303 5.73959 3.05742 4.5517 4.04772 3.61935C5.03801 2.687 6.29972 2.05206 7.6733 1.79483C9.04687 1.53759 10.4706 1.66961 11.7645 2.1742C13.0584 2.67878 14.1643 3.53327 14.9423 4.62959C15.7204 5.72592 16.1357 7.01485 16.1357 8.3334C16.1336 10.1009 15.3869 11.7954 14.0594 13.0452C12.7319 14.2951 10.9321 14.9981 9.05473 15.0001Z" fill="black"/>
</g>
<defs>
<clipPath id="clip0_235_21233">
<rect width="21.2429" height="20" fill="white" transform="translate(0.203369)"/>
</clipPath>
</defs>
</svg>
