<svg width="30" height="30" viewBox="0 0 30 30" fill="none" xmlns="http://www.w3.org/2000/svg">
<circle cx="15" cy="15" r="15" fill="#D0F0FB"/>
<g clip-path="url(#clip0_717_13142)">
<path d="M21.8535 20.1465L18.869 17.162C19.6823 16.1673 20.0822 14.898 19.9859 13.6168C19.8897 12.3355 19.3046 11.1402 18.3518 10.2782C17.399 9.41624 16.1513 8.95343 14.8668 8.98554C13.5823 9.01766 12.3593 9.54224 11.4508 10.4508C10.5423 11.3593 10.0177 12.5823 9.98556 13.8668C9.95344 15.1513 10.4163 16.399 11.2783 17.3518C12.1403 18.3046 13.3355 18.8896 14.6168 18.9859C15.898 19.0822 17.1673 18.6823 18.162 17.869L21.1465 20.8535C21.2408 20.9446 21.3671 20.995 21.4982 20.9938C21.6293 20.9927 21.7547 20.9401 21.8474 20.8474C21.9401 20.7547 21.9927 20.6293 21.9938 20.4982C21.995 20.3671 21.9446 20.2408 21.8535 20.1465ZM15 18C14.2089 18 13.4355 17.7654 12.7777 17.3259C12.1199 16.8863 11.6072 16.2616 11.3045 15.5307C11.0017 14.7998 10.9225 13.9955 11.0769 13.2196C11.2312 12.4437 11.6122 11.731 12.1716 11.1716C12.731 10.6121 13.4437 10.2312 14.2196 10.0768C14.9956 9.9225 15.7998 10.0017 16.5307 10.3045C17.2616 10.6072 17.8864 11.1199 18.3259 11.7777C18.7654 12.4355 19 13.2089 19 14C18.9988 15.0605 18.577 16.0772 17.8271 16.8271C17.0772 17.577 16.0605 17.9988 15 18Z" fill="black"/>
</g>
<defs>
<clipPath id="clip0_717_13142">
<rect width="12" height="12" fill="white" transform="translate(10 8.99997)"/>
</clipPath>
</defs>
</svg>
