<svg width="24" height="24" viewBox="0 0 24 24" fill="none" xmlns="http://www.w3.org/2000/svg">
<rect width="24" height="24" rx="4" fill="#0FB2F3"/>
<path d="M14.9778 10.6844L11.4078 7.11436C11.2621 6.96949 11.0649 6.88818 10.8595 6.88818C10.654 6.88818 10.4568 6.96949 10.3111 7.11436C10.2382 7.18666 10.1804 7.27268 10.1409 7.36746C10.1014 7.46224 10.0811 7.5639 10.0811 7.66658C10.0811 7.76925 10.1014 7.87091 10.1409 7.96569C10.1804 8.06047 10.2382 8.1465 10.3111 8.2188L13.8889 11.781C13.9618 11.8533 14.0197 11.9394 14.0591 12.0341C14.0986 12.1289 14.119 12.2306 14.119 12.3332C14.119 12.4359 14.0986 12.5376 14.0591 12.6324C14.0197 12.7271 13.9618 12.8132 13.8889 12.8855L10.3111 16.4477C10.1647 16.5931 10.082 16.7908 10.0812 16.9972C10.0805 17.2036 10.1618 17.4018 10.3072 17.5482C10.4527 17.6947 10.6503 17.7774 10.8567 17.7781C11.0631 17.7789 11.2613 17.6976 11.4078 17.5521L14.9778 13.9821C15.4147 13.5446 15.6602 12.9516 15.6602 12.3332C15.6602 11.7149 15.4147 11.1219 14.9778 10.6844Z" fill="white"/>
</svg>
