<svg width="20" height="20" viewBox="0 0 20 20" fill="none" xmlns="http://www.w3.org/2000/svg">
<g clip-path="url(#clip0_398_7266)">
<path d="M7.5 19.9999H0.833333C0.61232 19.9999 0.400358 19.9121 0.244078 19.7558C0.0877974 19.5996 0 19.3876 0 19.1666C0 18.9456 0.0877974 18.7336 0.244078 18.5773C0.400358 18.421 0.61232 18.3333 0.833333 18.3333H7.5C7.72101 18.3333 7.93298 18.421 8.08926 18.5773C8.24554 18.7336 8.33333 18.9456 8.33333 19.1666C8.33333 19.3876 8.24554 19.5996 8.08926 19.7558C7.93298 19.9121 7.72101 19.9999 7.5 19.9999Z" fill="#00295D"/>
<path d="M5.83333 16.6667H0.833333C0.61232 16.6667 0.400358 16.5789 0.244078 16.4226C0.0877974 16.2663 0 16.0543 0 15.8333C0 15.6123 0.0877974 15.4004 0.244078 15.2441C0.400358 15.0878 0.61232 15 0.833333 15H5.83333C6.05435 15 6.26631 15.0878 6.42259 15.2441C6.57887 15.4004 6.66667 15.6123 6.66667 15.8333C6.66667 16.0543 6.57887 16.2663 6.42259 16.4226C6.26631 16.5789 6.05435 16.6667 5.83333 16.6667Z" fill="#00295D"/>
<path d="M4.16667 13.3334H0.833333C0.61232 13.3334 0.400358 13.2456 0.244078 13.0893C0.0877974 12.9331 0 12.7211 0 12.5001C0 12.2791 0.0877974 12.0671 0.244078 11.9108C0.400358 11.7545 0.61232 11.6667 0.833333 11.6667H4.16667C4.38768 11.6667 4.59964 11.7545 4.75592 11.9108C4.9122 12.0671 5 12.2791 5 12.5001C5 12.7211 4.9122 12.9331 4.75592 13.0893C4.59964 13.2456 4.38768 13.3334 4.16667 13.3334Z" fill="#00295D"/>
<path d="M10.8333 19.9625C10.6123 19.9723 10.3964 19.8939 10.2332 19.7446C10.07 19.5953 9.97275 19.3872 9.96291 19.1662C9.95308 18.9452 10.0314 18.7293 10.1808 18.5661C10.3301 18.4029 10.5381 18.3056 10.7592 18.2958C12.3362 18.1515 13.8395 17.5608 15.0929 16.593C16.3464 15.6251 17.2981 14.3201 17.8366 12.8308C18.3751 11.3416 18.4781 9.72968 18.1335 8.18398C17.789 6.63828 17.0111 5.22277 15.891 4.10323C14.771 2.98368 13.3551 2.20647 11.8093 1.86261C10.2634 1.51876 8.65157 1.6225 7.16255 2.16169C5.67354 2.70088 4.36898 3.65319 3.40168 4.90708C2.43439 6.16097 1.8444 7.66452 1.70083 9.24164C1.68094 9.46177 1.57442 9.66498 1.40469 9.80657C1.23497 9.94816 1.01596 10.0165 0.795829 9.99664C0.575699 9.97675 0.372487 9.87022 0.230897 9.7005C0.0893074 9.53078 0.0209378 9.31177 0.0408291 9.09164C0.273236 6.52773 1.4855 4.15222 3.42527 2.45961C5.36504 0.766999 7.88286 -0.112306 10.4546 0.00473356C13.0264 0.121773 15.4539 1.22614 17.2319 3.08795C19.0099 4.94975 20.0014 7.42555 20 9.99997C20.0128 12.4986 19.0845 14.9105 17.3999 16.7558C15.7153 18.6012 13.3978 19.7448 10.9083 19.9591C10.8833 19.9616 10.8575 19.9625 10.8333 19.9625Z" fill="#00295D"/>
<path d="M10 5C9.77899 5 9.56703 5.0878 9.41075 5.24408C9.25447 5.40036 9.16667 5.61232 9.16667 5.83333V10C9.16672 10.221 9.25455 10.4329 9.41084 10.5892L11.9108 13.0892C12.068 13.241 12.2785 13.325 12.497 13.3231C12.7155 13.3212 12.9245 13.2335 13.079 13.079C13.2335 12.9245 13.3212 12.7155 13.3231 12.497C13.325 12.2785 13.241 12.068 13.0892 11.9108L10.8333 9.655V5.83333C10.8333 5.61232 10.7455 5.40036 10.5893 5.24408C10.433 5.0878 10.221 5 10 5Z" fill="#00295D"/>
</g>
<defs>
<clipPath id="clip0_398_7266">
<rect width="20" height="20" fill="white"/>
</clipPath>
</defs>
</svg>
