<svg width="17" height="20" viewBox="0 0 17 20" fill="none" xmlns="http://www.w3.org/2000/svg">
<path d="M12.5 20H4.16667C1.86917 20 0 18.1308 0 15.8333V4.16667C0 1.86917 1.86917 0 4.16667 0H12.5C14.7975 0 16.6667 1.86917 16.6667 4.16667V15.8333C16.6667 18.1308 14.7975 20 12.5 20ZM4.16667 1.66667C2.78833 1.66667 1.66667 2.78833 1.66667 4.16667V15.8333C1.66667 17.2117 2.78833 18.3333 4.16667 18.3333H12.5C13.8783 18.3333 15 17.2117 15 15.8333V4.16667C15 2.78833 13.8783 1.66667 12.5 1.66667H4.16667ZM13.3333 5C13.3333 4.54 12.96 4.16667 12.5 4.16667H9.16667C8.70667 4.16667 8.33333 4.54 8.33333 5C8.33333 5.46 8.70667 5.83333 9.16667 5.83333H12.5C12.96 5.83333 13.3333 5.46 13.3333 5ZM13.3333 10C13.3333 9.54 12.96 9.16667 12.5 9.16667H9.16667C8.70667 9.16667 8.33333 9.54 8.33333 10C8.33333 10.46 8.70667 10.8333 9.16667 10.8333H12.5C12.96 10.8333 13.3333 10.46 13.3333 10ZM13.3333 15C13.3333 14.54 12.96 14.1667 12.5 14.1667H9.16667C8.70667 14.1667 8.33333 14.54 8.33333 15C8.33333 15.46 8.70667 15.8333 9.16667 15.8333H12.5C12.96 15.8333 13.3333 15.46 13.3333 15ZM6.66667 5.83333V4.16667C6.66667 3.70667 6.29333 3.33333 5.83333 3.33333H4.16667C3.70667 3.33333 3.33333 3.70667 3.33333 4.16667V5.83333C3.33333 6.29333 3.70667 6.66667 4.16667 6.66667H5.83333C6.29333 6.66667 6.66667 6.29333 6.66667 5.83333ZM6.66667 10.8333V9.16667C6.66667 8.70667 6.29333 8.33333 5.83333 8.33333H4.16667C3.70667 8.33333 3.33333 8.70667 3.33333 9.16667V10.8333C3.33333 11.2933 3.70667 11.6667 4.16667 11.6667H5.83333C6.29333 11.6667 6.66667 11.2933 6.66667 10.8333ZM6.66667 15.8333V14.1667C6.66667 13.7067 6.29333 13.3333 5.83333 13.3333H4.16667C3.70667 13.3333 3.33333 13.7067 3.33333 14.1667V15.8333C3.33333 16.2933 3.70667 16.6667 4.16667 16.6667H5.83333C6.29333 16.6667 6.66667 16.2933 6.66667 15.8333Z" fill="#00295D"/>
</svg>
