<svg width="24" height="20" viewBox="0 0 24 20" fill="none" xmlns="http://www.w3.org/2000/svg">
<g clip-path="url(#clip0_248_24385)">
<path d="M20.7911 3.33333H17.8225C17.6003 2.39284 17.0122 1.54779 16.1575 0.940598C15.3027 0.333408 14.2336 0.0012121 13.1302 0L11.215 0C10.1116 0.0012121 9.04245 0.333408 8.18771 0.940598C7.33297 1.54779 6.74492 2.39284 6.52266 3.33333H3.55405C3.30008 3.33333 3.0565 3.42113 2.87691 3.57741C2.69733 3.73369 2.59644 3.94565 2.59644 4.16667C2.59644 4.38768 2.69733 4.59964 2.87691 4.75592C3.0565 4.9122 3.30008 5 3.55405 5H4.51167V15.8333C4.51319 16.938 5.01813 17.997 5.91574 18.7782C6.81335 19.5593 8.03033 19.9987 9.29974 20H15.0454C16.3148 19.9987 17.5318 19.5593 18.4294 18.7782C19.327 17.997 19.832 16.938 19.8335 15.8333V5H20.7911C21.0451 5 21.2887 4.9122 21.4683 4.75592C21.6478 4.59964 21.7487 4.38768 21.7487 4.16667C21.7487 3.94565 21.6478 3.73369 21.4683 3.57741C21.2887 3.42113 21.0451 3.33333 20.7911 3.33333ZM11.215 1.66667H13.1302C13.7242 1.6673 14.3034 1.82781 14.7884 2.1262C15.2734 2.42459 15.6405 2.84624 15.8393 3.33333H8.50588C8.70466 2.84624 9.07173 2.42459 9.55675 2.1262C10.0418 1.82781 10.621 1.6673 11.215 1.66667ZM17.9183 15.8333C17.9183 16.4964 17.6156 17.1323 17.0768 17.6011C16.5381 18.0699 15.8074 18.3333 15.0454 18.3333H9.29974C8.53781 18.3333 7.8071 18.0699 7.26833 17.6011C6.72957 17.1323 6.4269 16.4964 6.4269 15.8333V5H17.9183V15.8333Z" fill="#00295D"/>
<path d="M10.2573 15.0007C10.5113 15.0007 10.7548 14.9129 10.9344 14.7566C11.114 14.6003 11.2149 14.3883 11.2149 14.1673V9.16732C11.2149 8.9463 11.114 8.73434 10.9344 8.57806C10.7548 8.42178 10.5113 8.33398 10.2573 8.33398C10.0033 8.33398 9.75975 8.42178 9.58016 8.57806C9.40057 8.73434 9.29968 8.9463 9.29968 9.16732V14.1673C9.29968 14.3883 9.40057 14.6003 9.58016 14.7566C9.75975 14.9129 10.0033 15.0007 10.2573 15.0007Z" fill="#00295D"/>
<path d="M14.0877 15.0007C14.3417 15.0007 14.5853 14.9129 14.7649 14.7566C14.9445 14.6003 15.0454 14.3883 15.0454 14.1673V9.16732C15.0454 8.9463 14.9445 8.73434 14.7649 8.57806C14.5853 8.42178 14.3417 8.33398 14.0877 8.33398C13.8338 8.33398 13.5902 8.42178 13.4106 8.57806C13.231 8.73434 13.1301 8.9463 13.1301 9.16732V14.1673C13.1301 14.3883 13.231 14.6003 13.4106 14.7566C13.5902 14.9129 13.8338 15.0007 14.0877 15.0007Z" fill="#00295D"/>
</g>
<defs>
<clipPath id="clip0_248_24385">
<rect width="22.9828" height="20" fill="white" transform="translate(0.681152)"/>
</clipPath>
</defs>
</svg>
