<svg width="18" height="18" viewBox="0 0 18 18" fill="none" xmlns="http://www.w3.org/2000/svg">
<g clip-path="url(#clip0_67_4945)">
<path d="M17.25 17.9997C17.0511 17.9997 16.8604 17.9207 16.7197 17.7801C16.5791 17.6394 16.5 17.4486 16.5 17.2497C16.4989 16.0566 16.0244 14.9127 15.1807 14.0691C14.3371 13.2254 13.1932 12.7509 12 12.7497H7.62754V13.9392C7.62748 14.2359 7.53947 14.5258 7.37465 14.7724C7.20982 15.019 6.97557 15.2112 6.70152 15.3247C6.42747 15.4382 6.12593 15.468 5.835 15.4101C5.54407 15.3523 5.27682 15.2094 5.06704 14.9997L0.657793 10.5905C0.235983 10.1685 -0.000976563 9.59635 -0.000976562 8.99973C-0.000976563 8.40311 0.235983 7.83091 0.657793 7.40898L5.06704 2.99973C5.27682 2.79001 5.54407 2.6472 5.835 2.58935C6.12593 2.5315 6.42747 2.56121 6.70152 2.67471C6.97557 2.78822 7.20982 2.98042 7.37465 3.22704C7.53947 3.47365 7.62748 3.7636 7.62754 4.06023V5.24973H11.25C13.0396 5.25171 14.7554 5.96351 16.0208 7.22895C17.2863 8.49439 17.9981 10.2101 18 11.9997V17.2497C18 17.4486 17.921 17.6394 17.7804 17.7801C17.6397 17.9207 17.449 17.9997 17.25 17.9997ZM6.12754 4.06023L1.71829 8.46948C1.57769 8.61012 1.4987 8.80085 1.4987 8.99973C1.4987 9.1986 1.57769 9.38933 1.71829 9.52998L6.12754 13.9392V11.9997C6.12754 11.8008 6.20656 11.6101 6.34721 11.4694C6.48786 11.3287 6.67863 11.2497 6.87754 11.2497H12C12.8517 11.2495 13.6937 11.4309 14.4697 11.7819C15.2457 12.1329 15.9379 12.6454 16.5 13.2852V11.9997C16.4985 10.6078 15.9448 9.27339 14.9606 8.28917C13.9764 7.30495 12.6419 6.75132 11.25 6.74973H6.87754C6.67863 6.74973 6.48786 6.67071 6.34721 6.53006C6.20656 6.3894 6.12754 6.19864 6.12754 5.99973V4.06023Z" fill="#00295D"/>
</g>
<defs>
<clipPath id="clip0_67_4945">
<rect width="18" height="18" fill="white"/>
</clipPath>
</defs>
</svg>
